<?xml version="1.0" encoding="utf-8"?>
<!-- Generator: Adobe Illustrator 19.2.1, SVG Export Plug-In . SVG Version: 6.00 Build 0)  -->
<svg version="1.1" id="Layer_1" xmlns="http://www.w3.org/2000/svg" xmlns:xlink="http://www.w3.org/1999/xlink" x="0px" y="0px"
	 viewBox="0 0 960 560" style="enable-background:new 0 0 960 560;" xml:space="preserve">
<style type="text/css">
	.st0{fill:#9FAAA3;}
	.st1{fill:#999898;}
	.st2{fill:#F2F2F2;}
	.st3{fill:#6D3E37;}
	.st4{fill:#A7B7AD;}
	.st5{fill:#D17A5E;}
	.st6{fill:#B26752;}
	.st7{fill:#B7725F;}
	.st8{fill:#C7B299;}
	.st9{fill:#FFFFFF;}
	.st10{fill:#84B7AD;}
	.st11{fill:#63B7AD;}
	.st12{fill:#5FAA9F;}
	.st13{fill:#FFFFFF;stroke:#CCCCCC;stroke-width:0.5;stroke-miterlimit:10;}
	.st14{fill:#FFFFFF;stroke:#CCCCCC;stroke-width:0.25;stroke-miterlimit:10;}
	.st15{fill:#F2A396;}
	.st16{fill:#A0907F;}
	.st17{fill:#F2CBC9;}
	.st18{fill:#845753;}
</style>
<polygon class="st0" points="446,240.5 460.5,239 459.3,292.4 444.5,294 "/>
<polyline class="st1" points="256.9,234.8 271.6,229.9 271,236.6 257.4,238.3 "/>
<polyline class="st2" points="254.6,233.5 301.7,220.7 301.6,221.8 256.9,234.8 "/>
<polyline class="st1" points="310.3,218.5 418,183.8 418,192 315.9,220.4 "/>
<polygon class="st3" points="326,280 326,293 339.4,294 361.9,294 444.5,294 444.1,276 381.7,276.2 330.1,278.9 "/>
<polygon class="st4" points="340.5,211.9 418,189 418.4,272.7 340.7,279.7 "/>
<polygon class="st0" points="252.5,238.6 296.4,230.1 296.6,261 252.6,263.7 "/>
<polygon class="st5" points="318.1,220 340.5,211.9 340,280 325.9,280 "/>
<polygon class="st6" points="443,264.7 446,263.8 446,294 443,294 "/>
<polygon class="st6" points="412,273 416,273 415.9,294 412,294 "/>
<polygon class="st6" points="382,273 385.8,273.4 386.2,294 382,294 "/>
<polygon class="st6" points="359,278.1 361.9,278.4 361.9,294 359,294 "/>
<polygon class="st6" points="338,278.1 341.6,278.5 341.9,293.9 339.4,294 "/>
<path class="st7" d="M327,223c0,0,6.6,5.6,4.8,30.7l-2.5,26.3h-3.4L327,223z"/>
<polygon class="st5" points="231.8,261.5 281,262 269,286.5 233.5,281.6 "/>
<path class="st8" d="M270.9,223c0,0,20.1-21.8,56.1,0v70c0,0-24.9,3.2-55-2.5L270.9,223z"/>
<path class="st9" d="M273,223v7.8l5.7-2.5l-0.3-7.6C278.4,220.6,277,220.1,273,223z"/>
<path class="st9" d="M325,224v7.8l-5-2.5l-0.1-7.6C320,221.6,321,221.1,325,224z"/>
<path class="st9" d="M318,221v7.8l-7-1.5v-8.7C311,218.6,315,219,318,221z"/>
<path class="st9" d="M299.1,216.8l0.1,9.2l-9.1-0.3v-8.5C290,217.2,294.9,215.6,299.1,216.8z"/>
<path class="st9" d="M309,218.5v8.6l-7.4-1.4l-0.2-8.3C301.4,217.4,305,217.3,309,218.5z"/>
<polygon class="st5" points="418,192.7 446,185 446,276 418,276 "/>
<polygon class="st10" points="364,209.5 364,213 369.7,211.9 369.6,208.3 "/>
<polygon class="st11" points="372.6,220.7 373,224.8 379,224.2 379,220.3 "/>
<polygon class="st11" points="345.6,248.7 346,252.8 352,252.2 352,248.3 "/>
<polygon class="st11" points="341.6,231.7 342,235.8 348,235.2 348,231.3 "/>
<polygon class="st10" points="398.4,213.6 399,217.7 405.8,217.1 405.8,213.2 "/>
<polygon class="st10" points="405.8,198.5 406.4,202.5 413.3,201.9 413.3,198.1 "/>
<polygon class="st10" points="346.3,259.7 346.7,263.7 352,263.1 352,259.3 "/>
<polygon class="st10" points="373.4,259.6 374.1,263.7 379,263.2 379,259.3 "/>
<polygon class="st10" points="373.4,235.6 374.1,239.7 379,239.2 379,235.3 "/>
<polygon class="st11" points="393.4,233.6 394.1,237.7 399,237.2 399,233.3 "/>
<polygon class="st10" points="364,245.6 364,249.7 370,249.2 370,245.3 "/>
<polygon class="st10" points="346,219.6 346,223.7 352,223.2 352,219.3 "/>
<polygon class="st12" points="256.9,256.2 256.9,257.7 258.6,257.5 258.6,256.1 "/>
<polygon class="st12" points="255.8,240.6 256.1,242.2 258,242 258,240.5 "/>
<polygon class="st10" points="256.9,245.9 256.9,247.5 258.6,247.3 258.6,245.8 "/>
<polygon class="st10" points="253.9,251.9 253.9,253.5 255.6,253.3 255.6,251.8 "/>
<polygon class="st10" points="399,249.6 399,253.7 405,253.2 405,249.3 "/>
<polygon class="st10" points="353,241.6 353,245.7 359,245.2 359,241.3 "/>
<line class="st13" x1="394.2" y1="196" x2="394.8" y2="274.8"/>
<line class="st13" x1="401.2" y1="193.8" x2="401.8" y2="274.8"/>
<line class="st13" x1="408.2" y1="191.8" x2="408.8" y2="274.8"/>
<line class="st13" x1="387.2" y1="198.1" x2="387.8" y2="273.8"/>
<line class="st13" x1="374.2" y1="201.8" x2="374.8" y2="274.8"/>
<line class="st13" x1="368.2" y1="203.5" x2="368.8" y2="274.6"/>
<line class="st13" x1="362.2" y1="205.4" x2="362.8" y2="274.8"/>
<line class="st13" x1="343.2" y1="211.4" x2="343.8" y2="277"/>
<line class="st13" x1="349.2" y1="209.4" x2="349.8" y2="277.9"/>
<line class="st13" x1="356.2" y1="207.3" x2="356.8" y2="277"/>
<line class="st14" x1="257.4" y1="237.7" x2="257.6" y2="261.7"/>
<line class="st14" x1="254.6" y1="238.2" x2="254.8" y2="261.5"/>
<polygon class="st11" points="262.8,239.7 263.1,241.3 265,241.1 265,239.6 "/>
<polygon class="st11" points="268.8,236.7 268.6,238.3 271,238.1 271,236.6 "/>
<polygon class="st12" points="266.8,248.7 267.1,250.3 269,250.1 269,248.6 "/>
<polygon class="st10" points="259.9,251.3 259.9,252.8 261.6,252.7 261.6,251.2 "/>
<polygon class="st10" points="266.9,255.3 266.9,256.8 268.6,256.7 268.6,255.2 "/>
<polygon class="st10" points="265.9,242.3 265.9,243.8 267.6,243.7 267.6,242.2 "/>
<line class="st14" x1="264.4" y1="236.3" x2="264.6" y2="261.8"/>
<line class="st14" x1="267.4" y1="235.7" x2="267.6" y2="261.8"/>
<line class="st14" x1="260.6" y1="237.2" x2="260.8" y2="261.8"/>
<polygon class="st15" points="418.4,272.7 418,276 339.4,279.8 339.8,275.7 "/>
<path class="st9" d="M281,220v7.8l7-1.5v-8.7C288,217.6,285,217.1,281,220z"/>
<path class="st2" d="M338.9,211.9c0,0,1.5-0.7,1.6,0s0.2,69.1,0.2,69.1h-2L338.9,211.9z"/>
<path class="st2" d="M360.2,203.8c0,0,1-0.7,1.1,0s0.2,81.2,0.2,81.2h-1.4L360.2,203.8z"/>
<path class="st2" d="M383.7,196.8c0,0,1.5-0.8,1.6,0c0.1,0.8,0.2,83.2,0.2,83.2h-1.9L383.7,196.8z"/>
<path class="st2" d="M412.9,189.3c0,0,1.3-0.8,1.4,0.1c0.1,0.9,0.2,95.6,0.2,95.6h-1.7L412.9,189.3z"/>
<polyline class="st2" points="310.4,215.5 418,183.8 418,186 316.2,217.5 "/>
<polygon class="st6" points="233.8,263.5 271.6,265 272,290.5 233.5,281.6 "/>
<polygon class="st15" points="248,242.4 248,261.6 252.5,261.7 252.5,241 250,241 249.9,242.2 "/>
<polygon class="st16" points="301,257 301,260 309.8,260 310.2,256.1 301,256 "/>
<polygon class="st16" points="289,257 289,260 297.8,260 298.2,256.1 289,256 "/>
<polygon class="st16" points="301,266 301,269 309.8,269 310.2,265.1 301,265 "/>
<polygon class="st16" points="295,274 295,277 303.8,277 304.2,273.1 295,273 "/>
<polygon class="st16" points="312,266 312,269 318,269 318,265 312,265 "/>
<polygon class="st16" points="306,274.1 306,277 312,277 312,273.2 306,273.2 "/>
<polygon class="st16" points="321,274.1 321,277 325.5,277 325,273.2 321,273.2 "/>
<polygon class="st16" points="319,266.1 319,269 324.5,269 323.9,265.2 319,265.2 "/>
<polygon class="st16" points="319,257.1 319,260 324.5,260 323.9,256.2 319,256.2 "/>
<polygon class="st16" points="319,249.1 319,252 324.8,252 324.1,248.2 319,248.2 "/>
<polygon class="st16" points="320,241.1 320,244 324.3,244 323.8,240.2 320,240.2 "/>
<polygon class="st16" points="314,274.1 314,277 320,277 320,273.2 314,273.2 "/>
<polygon class="st16" points="312,257 312,260 318,260 318,256 312,256 "/>
<polygon class="st16" points="280,257.1 280,260 273,260 274,256.2 280,256.2 "/>
<polygon class="st16" points="279,266.1 279,269 272.9,269 273.8,265.2 279,265.2 "/>
<polygon class="st16" points="282,274.1 282,277 272.9,277 274.2,273.2 282,273.2 "/>
<polygon class="st16" points="287,257 287,260 281,260 281,256 287,256 "/>
<polygon class="st16" points="278,249.1 278,252 272,252 272.8,248.2 278,248.2 "/>
<polygon class="st16" points="285,249 285,252 279,252 279,248 285,248 "/>
<polygon class="st16" points="291,249 291,252 287,252 287,248 291,248 "/>
<polygon class="st16" points="279,241.1 279,244 273,244 273.8,240.2 279,240.2 "/>
<polygon class="st16" points="286,241 286,244 280,244 280,240 286,240 "/>
<polygon class="st16" points="281,234 281,237 275,237 275,233 281,233 "/>
<polygon class="st16" points="312,249 312,252 318,252 318,248 312,248 "/>
<polygon class="st16" points="312,241 312,244 318,244 318,240 312,240 "/>
<polygon class="st16" points="317,234 317,237 323,237 323,233 317,233 "/>
<polygon class="st16" points="283,234 283,237 292,237 292,233 283,233 "/>
<polygon class="st16" points="306,234 306,237 314,237 314,233 306,233 "/>
<polygon class="st16" points="290,266 290,269 298,269 298.4,265.1 290,265 "/>
<polygon class="st16" points="284,274 284,277 292,277 292.4,273.1 284,273 "/>
<polygon class="st16" points="280,266 280,269 288,269 288.4,265.1 280,265 "/>
<polygon class="st16" points="287,241 287,244 295,244 295.4,240.1 287,240 "/>
<polygon class="st16" points="300,241 300,244 308,244 308.4,240.1 300,240 "/>
<polygon class="st16" points="294,234 294,237 304.1,237 304.6,233.1 294,233 "/>
<polygon class="st16" points="302,249 302,252 310,252 310.4,248.1 302,248 "/>
<polygon class="st16" points="292,249 292,252 300,252 300.4,248.1 292,248 "/>
<polygon class="st17" points="275,279 275,291 279,291.7 279,279 "/>
<polygon class="st17" points="281,279 281,291.7 288,292.4 288,279 "/>
<polygon class="st17" points="326,280 324.8,293.2 320.8,293.8 321.2,279.7 "/>
<polygon class="st17" points="318.2,279.7 317.8,293.7 309,293.8 309,280 "/>
<polygon class="st17" points="305.6,280 304.6,294 291.7,293.4 292.3,279.7 "/>
<polygon class="st6" points="183,251 183,254 196,256 196,245 "/>
<polygon class="st3" points="242,255 242,261 196,256 196,245 "/>
<polygon class="st6" points="237.4,254 236,247 230.3,245.7 227.3,246.7 223.7,246.3 217,246.7 213.3,248.8 "/>
<polygon class="st3" points="206,244 206,248 213.3,248.8 223.7,246.3 222.3,243 218.8,241.4 210,240.4 210,244 "/>
<polygon class="st3" points="153,252 153,276 162,277 162,258 168.7,256 163.7,253 "/>
<polygon class="st18" points="242.3,261 177,253 177,280 233.5,281.6 231.8,261.5 "/>
<polygon class="st6" points="162,258.5 162,279.3 177,280 177,253 "/>
<polygon class="st6" points="149.2,254 153,252 153,276 149,276 "/>
</svg>
