<?xml version="1.0" encoding="utf-8"?>
<!-- Generator: Adobe Illustrator 19.2.1, SVG Export Plug-In . SVG Version: 6.00 Build 0)  -->
<svg version="1.1" id="Layer_1" xmlns="http://www.w3.org/2000/svg" xmlns:xlink="http://www.w3.org/1999/xlink" x="0px" y="0px"
	 viewBox="0 0 960 560" style="enable-background:new 0 0 960 560;" xml:space="preserve">
<style type="text/css">
	.st0{fill:#4D4D4D;}
	.st1{fill:#6E7677;}
	.st2{fill:#798384;}
	.st3{fill:#8D9194;}
	.st4{fill:#84898F;}
	.st5{fill:#666666;}
	.st6{fill:#9DA6AB;}
	.st7{fill:none;stroke:#2B2A2A;stroke-width:0.25;stroke-miterlimit:10;}
	.st8{fill:#BDCCD4;}
	.st9{fill:#909BA0;}
	.st10{fill:#CCD4D6;}
	.st11{fill:#787F82;}
	.st12{fill:#626668;}
	.st13{fill:#8A9193;}
	.st14{fill:#EAEFF3;}
	.st15{fill:#C6CBCE;}
	.st16{fill:#DCDEE0;}
	.st17{fill:#B2B6B7;}
	.st18{fill:#B8BBBC;}
	.st19{fill:#B3BDC6;}
	.st20{fill:#7E8284;}
	.st21{fill:#CAD2D8;}
	.st22{fill:#798184;}
	.st23{fill:#818789;}
	.st24{fill:#676E70;}
	.st25{fill:#777777;}
	.st26{fill:#8D8E8E;}
	.st27{fill:#6E777A;}
	.st28{opacity:0.53;fill:#EAEFF3;}
	.st29{font-family:'NeueDisplay-Wide';}
	.st30{font-size:7.6051px;}
</style>
<polygon class="st0" points="443,208.9 443,156.7 517.2,133 599,217 600.5,257.9 443.4,220.3 "/>
<polygon class="st1" points="374.3,313.1 366.8,431.7 523.6,425 657.4,425.6 650.2,360.4 646.6,356.8 648.2,347.7 616.7,318.7 
	613.9,252.5 516.8,155 417.3,200 415,257.9 411.9,296 "/>
<polygon class="st2" points="374.3,308.1 366.8,431.7 523.6,425 657.4,425.6 650.2,355.4 647.8,353 649.6,344 616.7,313.7 
	518.7,249.9 411.9,291 "/>
<polygon class="st0" points="443.7,295.6 442.4,308.8 449.5,313.2 458,311 467.5,300.6 518.5,282 533.9,290.8 541,287.8 541,280 
	534,267 518.2,256.2 451.2,284.8 "/>
<polygon class="st0" points="370.9,364.4 399.2,358.1 406.2,349.7 412,347.7 419.2,338.7 425,337.2 434.7,326 441.7,324.7 
	450.5,313.2 459,311 468.5,300.6 477.5,297.2 486.3,301.7 486,318 476,329.5 466.2,332.5 457.2,342.5 448.2,345.8 438.4,356.5 
	431.1,358.4 422.2,369.1 415.8,368.6 410.2,376 403.5,378.5 396.8,386 378.2,389.2 379.8,383.3 369.8,383.7 "/>
<polygon class="st3" points="516,228 516,232 616,311.3 616,309 "/>
<polygon class="st3" points="516,210.2 516,214.2 616.7,301.3 616.3,298.7 "/>
<polygon class="st3" points="516.1,201.8 516,206 616,296 615.7,293.4 "/>
<polygon class="st3" points="515.7,218.9 516,223 616.2,307.2 616.1,303.9 "/>
<polygon class="st3" points="516,192.2 516,197.4 616,291.7 615.7,289 "/>
<polygon class="st3" points="516,184.1 516,187.8 615.1,286.3 614.9,283.7 "/>
<polygon class="st3" points="516,177.1 516,180.4 615.1,279.3 614.9,276.7 "/>
<polygon class="st3" points="516,237 516,241 616,317.1 616,314.5 "/>
<polygon class="st4" points="431.1,360.4 517,344 517,348 426.2,366.3 "/>
<polygon class="st5" points="427.6,364.6 517,349 516.7,353.7 424.6,367.9 "/>
<g>
	<polygon class="st6" points="474.6,261.1 473.8,263.6 468.4,265.8 469,263.5 	"/>
	<polygon class="st6" points="480.7,258 480,260.5 486,258 486.5,255.4 	"/>
	<polygon class="st6" points="505.7,212 505,214.5 511,212 511.5,209.4 	"/>
	<polygon class="st6" points="471.1,239.2 470.6,241.6 476,239.2 476.8,236.1 	"/>
	<polygon class="st6" points="489.1,188.2 488.6,190.6 494,188.2 494.8,185.1 	"/>
	<polygon class="st6" points="504.1,194.2 503.6,196.6 509,194.2 509.8,191.1 	"/>
	<polygon class="st6" points="443.1,202.2 442.6,204.6 448,202.2 448.8,199.1 	"/>
	<polygon class="st6" points="433.1,258.2 432.6,260.6 438,258.2 438.8,255.1 	"/>
	<polygon class="st6" points="448.1,216.2 447.6,218.6 453,216.2 453.8,213.1 	"/>
	<polygon class="st6" points="565.8,237.4 566.4,240.1 569,242.2 569,241 	"/>
	<polygon class="st6" points="599.8,258.4 600.4,261.1 603,263.2 603,262 	"/>
	<polygon class="st6" points="544.8,202.4 545.4,205.1 548,207.2 548,206 	"/>
	<polygon class="st6" points="551.8,232.4 552.4,235.1 555,237.2 555,236 	"/>
	<polygon class="st6" points="558.8,251.4 559.4,254.1 562,256.2 562,255 	"/>
	<polygon class="st6" points="544.8,255.4 545.7,258.9 550,261.8 550,260.2 	"/>
	<polygon class="st6" points="571,269.4 571.7,272 575,274.2 575,272.9 	"/>
	<polygon class="st6" points="587,288.4 587.7,291 591,293.2 591,291.9 	"/>
	<polygon class="st6" points="601.8,283.4 602.4,286.1 605,288.2 605,287 	"/>
</g>
<polygon class="st4" points="516,219 414.4,270.7 413.3,274.8 516,223 "/>
<polygon class="st4" points="516,228 413.5,278.2 412.7,281.3 516,232 "/>
<polygon class="st4" points="516,237 413.3,283.9 411.9,288.2 515.7,240.7 "/>
<polygon class="st4" points="414.9,263.9 414.1,267.3 456.6,244.5 516,214 516,210.2 "/>
<polygon class="st4" points="414.7,256.9 414.1,260.5 516,206 516,202.2 "/>
<polygon class="st4" points="415.4,246.5 414.8,251.7 516,197.4 516,192.2 "/>
<polygon class="st4" points="415.4,236.5 414.8,241.7 516,187.4 516,184.1 "/>
<polygon class="st4" points="415.6,228 415,232.9 516,180.4 516,177.1 "/>
<polygon class="st3" points="516,170.1 516,173.4 615.1,272.3 614.9,269.7 "/>
<polygon class="st4" points="415.9,219 415.3,223.9 516,173.4 516,170.1 "/>
<polygon class="st4" points="415,209.9 414.2,214.8 517,165.8 517.2,162.5 "/>
<path class="st7" d="M374.3,314.1"/>
<path class="st7" d="M518.7,249.9"/>
<path class="st7" d="M558.3,278.1"/>
<polygon class="st8" points="477.2,297.9 478.2,305.6 486.3,301.7 "/>
<polygon class="st8" points="468.6,309.4 467.8,325.3 477,322.6 477.8,306.2 "/>
<polygon class="st8" points="478.3,306 477.5,322.3 485.3,319.5 486.3,302.2 "/>
<polygon class="st9" points="468.3,301.4 468.7,308.8 477.8,305.8 476.7,297.9 "/>
<polygon class="st9" points="467.4,302.6 468.3,309.1 459.4,319.5 458.2,312.1 "/>
<polygon class="st9" points="449.7,314.9 450.8,322.5 458.8,319.9 457.8,312.1 "/>
<polygon class="st10" points="458,336.6 456.1,342.6 465.1,333.1 467.1,326.5 "/>
<polygon class="st10" points="467.6,325.8 465.9,332.4 475,329.5 476.7,323 "/>
<polygon class="st10" points="477.3,323 475.5,329.7 484.4,320.2 "/>
<polygon class="st10" points="440.5,348.7 438.8,354.8 447.1,345.7 449,339.3 "/>
<polygon class="st8" points="459.3,320.2 468,309.8 467.1,325.3 458,336 "/>
<polygon class="st8" points="450.6,323 458.8,320.5 457.6,336.2 449.5,338.5 "/>
<polygon class="st10" points="449.4,339.3 447.5,345.8 455.1,343.9 457.5,336.8 "/>
<polygon class="st10" points="423.6,361.8 422.2,368 430,358.6 431.6,352.1 "/>
<polygon class="st10" points="410.3,370.9 409,376.5 415.8,368.4 416.9,363 "/>
<polygon class="st9" points="432.4,351.3 431.1,357.7 438.1,355.9 439.7,349.4 "/>
<polygon class="st9" points="417.4,362.3 416.1,368.7 421.6,368.3 423,361.7 "/>
<polygon class="st8" points="441.8,333.4 440.9,347.5 449,338.5 450.1,323.6 "/>
<polygon class="st11" points="440.9,325.3 441.9,332.4 450.2,322.9 449.4,315.4 "/>
<polygon class="st11" points="434.6,328 434.8,334.8 441.5,332.9 440.2,325.7 "/>
<polygon class="st11" points="425.4,337.5 433.5,327.8 433.8,335.6 426.3,344.4 "/>
<polygon class="st9" points="434.3,335.8 432.9,350.3 440.2,348.2 441.2,333.7 "/>
<polygon class="st9" points="426.5,344.8 433.8,336.5 432.3,350.8 425.6,358.1 "/>
<polygon class="st8" points="419.6,347.1 425.8,345.4 424.7,358.8 418.2,361.1 "/>
<polygon class="st11" points="419,339.5 419.6,346.5 425.8,344.7 425,337.2 "/>
<polygon class="st8" points="418.3,340.9 418.7,347.1 412.7,354.6 412.1,348.4 "/>
<path class="st0" d="M412.7,353.2"/>
<polygon class="st8" points="412.5,355.8 419,348 417.4,362.3 411.1,369.1 "/>
<polygon class="st11" points="404.6,372.8 403.6,377.5 407.6,377.1 409.1,371.6 "/>
<polygon class="st10" points="397.4,380.1 395.5,385.8 401.5,378.9 403.3,372.9 "/>
<polygon class="st8" points="391.6,381.4 389.5,386.9 394.9,385.8 396.4,380.4 "/>
<polygon class="st8" points="386.1,382.6 383.9,388.2 388.8,386.9 391,381.5 "/>
<polygon class="st8" points="380.6,383.2 379.2,389 383.2,388.2 385.6,382.3 "/>
<polygon class="st8" points="405.9,358.6 404.5,371.5 410.1,370.5 411.7,356.2 406.1,357.7 "/>
<polygon class="st9" points="399.4,365.9 405.3,358.1 403.8,371.5 398.1,378 "/>
<polygon class="st12" points="398.9,359.1 399.4,364.9 405.9,356.2 405.3,351.6 "/>
<polygon class="st9" points="406.2,351 406.6,356.8 411.7,355.6 410.6,349.4 "/>
<polygon class="st11" points="393.3,367.8 392.6,379.9 397.2,379.3 398.5,366.3 "/>
<polygon class="st13" points="388.4,368.7 392.6,368 391.4,380.4 387.2,381.5 "/>
<polygon class="st13" points="382.4,369.9 387.4,368.7 386.4,381.1 381.3,382.3 "/>
<polygon class="st12" points="392.6,360.4 393.4,366.3 398.5,365.2 398.1,359.4 "/>
<polygon class="st13" points="387.8,362.2 388.5,367.6 392.6,366.8 391.9,361.1 "/>
<polygon class="st13" points="382,363.4 386.5,362.4 387.1,367.6 382,368.7 "/>
<polygon class="st13" points="371,365.1 371,369.4 377,368.7 377,364 "/>
<polygon class="st13" points="379,364.2 378.6,369 381,369 381,363.8 "/>
<polygon class="st13" points="376.5,370.9 375.5,382.6 380.4,382.3 381.3,370.5 "/>
<polygon class="st13" points="371.3,371 370.9,382 375,382 375.9,371 "/>
<polygon class="st14" points="452.1,307.8 450.5,312.3 458,311 459.8,304.8 "/>
<polygon class="st14" points="460.5,304.8 459.1,309.8 467.1,299.8 469.2,294.1 "/>
<polygon class="st14" points="470.4,293.2 478.5,290.3 476.7,296.4 468.3,299.7 "/>
<polygon class="st14" points="479.4,290.3 477.8,296 486.8,292.7 488.8,286.3 "/>
<polygon class="st14" points="489.6,286.3 487.6,292.3 497.2,288.8 498.7,282.9 "/>
<polygon class="st14" points="499.8,282.5 498.2,288.7 508.6,284.8 509.8,278 "/>
<polygon class="st14" points="510.4,278.2 509,284.9 517,282 517,276 "/>
<polygon class="st15" points="518.6,276 518.5,282 524.4,285.4 523,278.8 "/>
<polygon class="st15" points="524.1,279.3 525.8,285.8 533.1,290.3 531.4,284 "/>
<polygon class="st15" points="532.7,284 534.7,289.8 539.8,287.6 "/>
<polygon class="st14" points="524.3,271.7 524.1,278.1 532,282.9 532,276 "/>
<polygon class="st14" points="518,267 518,274 522.8,277.3 523.1,270 "/>
<polygon class="st16" points="444.1,309.8 451.4,307.8 449.2,312.3 "/>
<polygon class="st14" points="532,276 532.7,284 540.1,286.9 539.8,280 "/>
<polygon class="st8" points="525.4,262.1 524.1,269.7 532,274.8 533.1,267.3 "/>
<polygon class="st8" points="518.5,257.7 518,266.2 523.1,269.2 524.4,261.1 "/>
<polygon class="st8" points="508.8,260.5 517.5,257.7 517,267 509.9,268.4 "/>
<polygon class="st10" points="511,270 511,277 517.5,274.8 518,267 "/>
<polygon class="st10" points="500,273.8 499.3,281.8 510,277 510,270 "/>
<polygon class="st14" points="489.6,278 488.8,285.4 499.3,281.8 498.7,274.3 "/>
<polygon class="st10" points="499.3,265.3 500,272.3 509.9,268.4 508,261.1 "/>
<polygon class="st17" points="488.8,270 497.9,266.2 499.3,273.1 489.6,277 "/>
<polygon class="st17" points="478.5,273.8 479.9,280.7 488.8,277.2 487.6,270 "/>
<polygon class="st10" points="480,282.2 479.5,288.8 489,285.4 489,279 "/>
<polygon class="st10" points="469.2,278 470.2,285.4 479.1,281.7 477.8,274.3 "/>
<polygon class="st10" points="470.2,286.3 469.8,292.3 478.5,289.2 479.2,282.9 "/>
<polygon class="st18" points="460.7,281.4 461.6,288.8 470.2,285.4 468.4,278.4 "/>
<polygon class="st14" points="461.5,289.8 460.5,302.6 469,294.1 469,286.9 "/>
<polygon class="st18" points="452.2,284.9 453.1,291.7 460.7,288.8 459.8,281.8 "/>
<polygon class="st14" points="453,292.9 451.9,306.7 459.8,303.9 460.7,290.3 "/>
<polygon class="st14" points="443.7,295.6 443,307.8 451,306.7 451.9,293.2 "/>
<polygon class="st18" points="451.9,285.8 445.5,294.1 452.2,292.3 "/>
<path class="st4" d="M438.8,358.6"/>
<polygon class="st19" points="517,315 517,319 600.6,356.8 596.5,352.3 "/>
<polygon class="st5" points="565,355.9 570.6,350.8 592.1,359.6 596.1,355.2 600.6,356.8 604.8,352.5 608.6,354.1 611.8,350.9 
	615,351.7 618.1,348.6 613.9,340.1 613.5,329.5 616.5,326.6 645.6,347.8 645,351.9 645,355 647,360.9 638.5,357.5 639.6,360.9 
	640.5,370.1 638.4,373.4 626.5,368.2 623.4,371.8 620,371 617.1,375 613.6,373.9 610.5,378.4 606,377.9 602.4,383.1 597.5,381.8 
	593.8,387.2 571.4,382.5 565,372.5 "/>
<path class="st19" d="M414.8,251.7"/>
<polygon class="st1" points="517,335 517,338 565,355.9 558.3,349.4 "/>
<polygon class="st20" points="517,330 517,335 563.5,351.6 558.3,345.4 "/>
<polygon class="st1" points="517,325 517,328 522.8,331.2 563,347 563,344 "/>
<polygon class="st1" points="517,306 517,310 608.6,354.1 606,350.3 "/>
<polygon class="st15" points="533.9,268.4 538.9,278.3 533.1,275.2 "/>
<polygon class="st21" points="565,355.9 565.8,371.9 569.2,372.9 569.3,358 "/>
<polygon class="st9" points="570,358.9 570.2,374.4 575,375.6 575,361 "/>
<polygon class="st9" points="576,361 576,375 581.4,376.8 580.8,363.4 "/>
<polygon class="st9" points="581.9,363.7 582.2,376.8 586.7,378.1 586.2,364.4 "/>
<polygon class="st9" points="587.1,365.2 587.8,378.6 591.6,379.3 590.8,366.3 "/>
<polygon class="st9" points="592.1,365.8 595.6,362.4 596,374.6 592.6,378.9 "/>
<polygon class="st9" points="596.1,361.5 596.9,373.8 600,374.9 600,363 "/>
<polygon class="st9" points="601.3,362.4 603.4,359.8 603.8,370.9 601.3,374.2 600,363 "/>
<polygon class="st9" points="604.6,359.4 605.2,370.9 608.2,371.8 607.8,359.8 "/>
<polygon class="st9" points="609,359.8 608.6,370.9 611.8,367.8 611,356.8 "/>
<polygon class="st9" points="612,351.5 612,356.4 614.4,357.8 615,352.7 "/>
<polygon class="st9" points="617.8,350.3 618.1,353.7 620.3,354.1 619.8,348.7 "/>
<polygon class="st9" points="624.8,347 624,351.6 625.5,352.6 626.8,348.2 "/>
<polygon class="st9" points="628,348.7 626.8,352.2 628,353.7 629.4,349.8 "/>
<polygon class="st9" points="630.3,351.2 629.9,354.1 631.2,355.2 632.2,351.4 "/>
<polygon class="st9" points="632.8,352.6 632.2,355.9 633.8,356.8 634.7,353.2 "/>
<polygon class="st9" points="635.7,353.7 634.7,357.3 636.1,358.3 636.8,354.1 "/>
<polygon class="st19" points="612,357 612,368 615,368.9 614.4,357.9 "/>
<polygon class="st19" points="618.1,354.7 618.7,364.4 621.2,365.6 620.4,355.2 "/>
<polygon class="st19" points="615,358.3 617,355.2 617.5,365.2 615,368.9 "/>
<polygon class="st19" points="621.5,355.2 623.1,353.2 623.6,362.1 621.9,365.2 "/>
<polygon class="st9" points="624,353 624.6,362.3 626.8,362.7 625.5,353 "/>
<polygon class="st9" points="626.2,354.1 626.8,362.9 629.4,363.7 628.4,355 "/>
<polygon class="st9" points="629,355.2 629.9,364.4 632,365.6 631.3,356.6 "/>
<polygon class="st21" points="615,352 615,357.2 617,354.3 617,350.3 "/>
<polygon class="st22" points="571.2,351.6 570,357.9 575,359.8 576.8,353.2 "/>
<polygon class="st22" points="577.5,353.7 576,361 580.6,362.1 582.5,355.7 "/>
<polygon class="st22" points="583,356 583,362 586.3,362.9 587.1,357.2 "/>
<polygon class="st22" points="587.5,358.3 587.1,364.4 590.8,365.6 592.1,359.6 "/>
<polygon class="st22" points="593.2,359.4 592.1,364.7 595.6,361.5 596.4,356 "/>
<polygon class="st22" points="597.1,355.9 596.1,361.5 600,362.1 600.6,356.8 "/>
<polygon class="st22" points="601.5,356.9 601.1,361 603.8,357.8 604.6,353.2 "/>
<polygon class="st22" points="605.2,353.7 604.6,358.3 607.4,358.9 608.6,354.1 "/>
<polygon class="st23" points="609.3,354 608.4,358.3 611,355.2 611,352 "/>
<polygon class="st9" points="566.1,355.2 570.6,351.4 569.3,357.2 "/>
<polygon class="st24" points="565,348 565,355 570.3,350.3 "/>
<polygon class="st9" points="632,357.2 632.7,365.6 634.7,367 633.9,357.9 "/>
<polygon class="st9" points="634.7,358.3 635.2,367 637.5,368.2 636.4,359.4 "/>
<polygon class="st19" points="637.5,355.9 637.1,358.9 639.1,359.4 "/>
<polygon class="st9" points="637.5,360.2 638.1,368.2 640.1,368.9 639.6,360.9 "/>
<polygon class="st9" points="624.8,363.3 626.2,367.4 627.8,367.9 626.8,363.8 "/>
<polygon class="st9" points="627.6,364.7 628.6,368.3 631,369.6 629.4,365 "/>
<polygon class="st9" points="630.6,365.7 631.6,369.3 633.3,370.2 632.4,366 "/>
<polygon class="st9" points="633.6,367.7 634.6,371.3 636.3,372.2 635.4,368 "/>
<polygon class="st9" points="619,365.7 620.6,370.2 623.4,371.8 621.5,366.3 "/>
<polygon class="st25" points="622.5,365.9 624,363.7 625.7,367.7 623.6,370.2 "/>
<polygon class="st9" points="636.1,369 636.3,372.3 638.1,372.5 637.1,369 "/>
<polyline class="st9" points="638.2,369.8 639.2,371.9 640.5,370.4 640.1,370 639,370 "/>
<polygon class="st9" points="566.8,373.4 571.4,380.8 570.2,374.4 "/>
<polygon class="st26" points="571.2,375.6 572.5,382.2 577.7,382.8 575.7,376.8 "/>
<polygon class="st26" points="577.2,377.1 578.7,383.7 583.9,384.4 581.4,378.1 "/>
<polygon class="st26" points="582.5,378.9 584.6,384.4 588.5,385.3 586.7,379.2 "/>
<polygon class="st26" points="587.8,379.8 589.6,385.8 593.8,387.2 592.1,380.7 "/>
<polygon class="st9" points="593.2,379.3 596,375.6 598,381.4 594.6,386 592.6,379.8 "/>
<polyline class="st26" points="601.5,376.2 602.8,381.8 606,377.9 604.6,371.9 601.5,375.6 "/>
<polygon class="st26" points="609.2,372.5 610.7,377.5 613.6,373.9 611.4,368.7 "/>
<polygon class="st26" points="615.7,368.7 617.8,366 619.6,369.9 617.5,373.4 "/>
<polygon class="st9" points="621.9,349.3 621.2,353.7 623.4,351.4 624.1,346.3 "/>
<polygon class="st9" points="616.6,327.6 616,331.3 614.5,328.9 "/>
<polygon class="st27" points="614.5,330.4 615,339.9 616.6,342.1 616,331.9 "/>
<polygon class="st27" points="616.6,332.2 617,342.6 619.6,344 619,333.8 "/>
<polygon class="st9" points="617,328 616.6,331.7 618.6,332.9 619.6,329.4 "/>
<polygon class="st27" points="619.6,334.6 620.3,343.2 622.5,341.2 622.1,335.9 "/>
<polygon class="st27" points="622.7,336.2 622.5,341.2 625.4,342.6 624.8,337.6 "/>
<polygon class="st27" points="629,339.6 628,343.6 631,344.9 631.4,340.8 "/>
<polygon class="st27" points="631.9,341.1 631,344.9 633.6,346.3 634.7,342.6 "/>
<polygon class="st27" points="635.3,343 634.7,346.2 636.8,347.2 637.1,343 "/>
<polygon class="st9" points="605.3,372.2 606.6,377.5 610.8,378 608.6,372.5 "/>
<polyline class="st9" points="596.8,375.4 598.7,381.5 601.9,381.8 600.2,375.4 597.2,375.6 "/>
<polygon class="st9" points="612.4,369 614,373.6 616.9,374.2 615.2,369.6 "/>
<polygon class="st27" points="625.6,338.1 626.1,342.7 628,343.4 628,339 "/>
<polygon class="st5" points="517,339 517,343 565,359.2 558.8,354 "/>
<polygon class="st5" points="517,349.1 516.7,353.7 564.5,367.2 558.8,362.4 "/>
<polygon class="st5" points="517,359.5 516.7,363.7 550.8,372.2 544,366.9 "/>
<polygon class="st5" points="465.9,337 475,330.5 517,320 517,324 "/>
<polygon class="st5" points="516.7,306.7 517,310 486.7,317.3 495.8,311 "/>
<path class="st5" d="M373.1,314.1"/>
<polygon class="st28" points="364.2,410 406.8,407.7 412.5,400.7 418,406.3 505.7,401.5 516.7,401.1 530.8,402.9 559.1,405.3 
	534.1,373.4 517.2,368.9 420.8,382.6 414.5,389 407.6,384.3 379.2,389 369.5,389.2 368.2,410 "/>
<polygon class="st20" points="517,344 517,348 564.5,362.4 561.4,359.2 "/>
<polygon class="st19" points="523.6,347.3 523.9,350.2 532.2,353.2 531.3,350 "/>
<polygon class="st19" points="540.2,335.1 540.4,337.5 546.4,340.1 545,336.8 "/>
<polygon class="st14" points="517,370.5 516.7,399.6 556.2,403.4 533.7,374.9 "/>
<path class="st14" d="M365.1,389.3"/>
<polygon class="st14" points="373.1,390.1 407,385.8 405.9,406 372,407.5 "/>
<polygon class="st10" points="408.1,387.4 407,403.4 411.7,399.1 412.5,389 "/>
<polyline class="st8" points="416.1,389.8 421.1,384.8 516,371.4 516.7,399.6 420.2,404.4 415,400.1 415,390 "/>
<polygon class="st1" points="438.4,356.5 444.8,351.5 517,339 517,343 "/>
<polygon class="st20" points="517,330 517,335 457.2,344 465.5,338.5 "/>
<polygon class="st8" points="481.8,326.5 485.5,322.3 517,315 517,319 "/>
<polygon class="st1" points="617,344 618.4,348 620,348 619.6,344.6 "/>
<polygon class="st1" points="620.3,344 622.5,342.6 622.7,347 620.8,348.4 "/>
<polygon class="st1" points="623.4,343 623.6,346.3 625.4,347 625.1,343.2 "/>
<polyline class="st1" points="626,344 626,347 627.1,347 627.7,344.4 626,344 "/>
<polygon class="st9" points="620,329.8 619.2,333.2 622.2,335.1 622.9,331.8 "/>
<polygon class="st9" points="623.4,332.6 622.7,335.9 625,337.2 625.4,333.8 "/>
<polygon class="st9" points="626,334.4 625.6,337.4 628.1,338.4 628.6,335.9 "/>
<polygon class="st9" points="629.4,336.9 629,339.1 631.5,340.3 631.4,337.5 "/>
<polygon class="st9" points="644.2,347.7 643.9,349.6 645,350.3 645.6,347.8 644.3,347.2 "/>
<polygon class="st9" points="632.4,338.7 631.9,340.7 634.2,342.3 634.3,339.8 "/>
<text transform="matrix(0.9975 -7.011000e-02 7.011000e-02 0.9975 419.2441 398.3561)" class="st29 st30">The New School</text>
<polygon class="st6" points="588.9,261 589.3,263.6 592,266.1 592,264 "/>
<polygon class="st6" points="613,285 613,286 615.4,288.2 615.1,286.3 "/>
<polygon class="st3" points="516.4,165.5 615.1,264.5 614,259.9 516.9,162.5 "/>
</svg>
