<?xml version="1.0" encoding="utf-8"?>
<!-- Generator: Adobe Illustrator 19.2.1, SVG Export Plug-In . SVG Version: 6.00 Build 0)  -->
<svg version="1.1" id="Layer_1" xmlns="http://www.w3.org/2000/svg" xmlns:xlink="http://www.w3.org/1999/xlink" x="0px" y="0px"
	 viewBox="0 0 960 560" style="enable-background:new 0 0 960 560;" xml:space="preserve">
<style type="text/css">
	.st0{fill:#080838;}
	.st1{fill:#3A0C27;}
	.st2{fill:#560A3D;}
</style>
<path class="st0" d="M519.4,228.7c0,0-15.9,43.7-34.5,56.2s-26.3-6-10.6-16.7c15.7-10.7,29.6-34.2,29.6-34.2l19.5-15.8L519.4,228.7z
	"/>
<path class="st1" d="M531.9,332c0,0,3.8,62.6,0,67c-3.8,4.4-13.8,0-13.8,0s4-63.8,5.5-76.9S531.9,332,531.9,332z"/>
<path class="st1" d="M511.9,332c0,0,3.8,62.6,0,67c-3.8,4.4-13.8,0-13.8,0s4-63.8,5.5-76.9C505,309,511.9,332,511.9,332z"/>
<path class="st2" d="M434,358c0,0,3.2,39,0,41.7c-3.2,2.7-11.7,0-11.7,0s3.4-39.7,4.6-47.9S434,358,434,358z"/>
<path class="st2" d="M417,358c0,0,3.2,39,0,41.7c-3.2,2.7-11.7,0-11.7,0s3.4-39.7,4.6-47.9S417,358,417,358z"/>
<circle class="st2" cx="425.1" cy="285" r="19.7"/>
<path class="st1" d="M525.6,204.6c0,0-8.8,3.2-15.6,0.1c-2.3-1-4.6,8.9-7.4,23.4c-5.7,29.8-13.1,79.2-24.5,93.5
	c-8,10.1,86.5,17.1,77.5,1.2C545,304,552.5,253.3,525.6,204.6z"/>
<path class="st0" d="M536.4,225.8c0,0,24,39.9,22.1,62.1c-1.9,22.3-21.2,16.7-19.7-2.3S536,240,536,240l-5.2-24L536.4,225.8z"/>
<path class="st0" d="M430.2,315c0,0,16.3-28.7,29.2-34.7c13-6,14.3,9.2,3.3,14.4c-11,5.2-35.8,36.2-35.8,36.2v-9.6L430.2,315z"/>
<path class="st2" d="M432.9,303.6c0,0,10.7,50.2,4.7,58.4c-6,8.2-32.2,2.6-31.8-4.7s1.7-42.3,8.6-53.6S432.9,303.6,432.9,303.6z"/>
<circle class="st1" cx="513.5" cy="184.4" r="28.4"/>
<path class="st0" d="M409.2,312c0,0-13.2,20.5-12.7,31c0.5,10.6,10.9,6.2,10.6-2.7s7.3-36.7,7.3-36.7l-2.1,4.2L409.2,312z"/>
</svg>
