<?xml version="1.0" encoding="utf-8"?>
<!-- Generator: Adobe Illustrator 19.2.1, SVG Export Plug-In . SVG Version: 6.00 Build 0)  -->
<svg version="1.1" id="Layer_1" xmlns="http://www.w3.org/2000/svg" xmlns:xlink="http://www.w3.org/1999/xlink" x="0px" y="0px"
	 viewBox="0 0 960 560" style="enable-background:new 0 0 960 560;" xml:space="preserve">
<style type="text/css">
	.st0{fill:#FFFFFF;stroke:#000000;stroke-miterlimit:10;}
</style>
<path class="st0" d="M191.4,115.1c0,21.2-19.6,37.7-42.5,36.6c-21.1-1.1-34.1-15.4-34.1-36.6s17.2-38.3,38.3-38.3
	S191.4,94,191.4,115.1z"/>
<g id="_x33_ezziE.tif">
	<g>
		<path d="M145.3,78.2c5.7,2.4,6.3,7,1.7,13.4c3.4,0.8,5.3,3.3,6.9,6.2c2.5,4.5,4.8,9,4.6,14.4c0,1.2,1.7,2.4,2.6,3.5
			c0.3-2,0.1-4,0.9-5.4c0.8-1.5,2.5-2.6,4-3.4c1.5-0.9,4.2-0.1,5.3,1.2c2.3,2.8,2.3,5.5,0.2,8.7c1.8,2,3.4,4,5.1,5.9
			c1.1,1.2,2.2,2.3,3.3,3.6c1.5,1.6,2.1,3.5,1.3,5.7c-0.7,2-2.1,2.2-3.5,0.7c-0.7-0.7-1.3-1.5-2.1-2.4c0.3,5.5,0.3,5.5-1.7,6.7
			c0.3,2,2.5,5,1,6.9c-1.3,1.7-4.8,3.8-5,2.4c-0.4-2.6-0.9-5.2-1.4-7.7c-0.1-0.3-0.2-0.7-0.8-1c-0.1,0.5-0.1,1.1-0.2,1.6
			c-0.2,2.4-0.4,4.8-0.7,7.3c-0.1,0.7-0.3,1.7-0.8,2c-0.9,0.6-2,1.2-3.1,1.2c-1.3,0-1.4-1.3-1.4-2.4c0.4-6.9,0.7-13.7,1.1-20.6
			c0.1-1.2-0.3-2.1-1.2-2.9c-1.8-1.9-3.5-3.9-5.2-5.9c-0.2,0.2-0.4,0.4-0.7,0.6c0.7,2.4,1.6,4.9,2.2,7.3c0.7,2.5,0,3.3-2.6,3.4
			c-2,0.1-4,0-6.3,0c0.2,3.2,0.5,6,0.6,8.8c0.1,2.9,0.2,5.9,0.2,8.8c0,3-0.6,3.8-2.9,4.1c-2.6,0.3-4-0.7-4.7-3.4
			c-0.1-0.1-0.2-0.2-0.3-0.2c-4.1-0.1-5-0.8-5-5c0-3.6,0.5-7.2,0.8-10.8c0-0.6,0-1.2,0-2.1c-2,0-3.9-0.1-5.8,0
			c-1.8,0.1-3-0.4-3.6-2.2c0-0.1,0-0.2,0-0.4c1.4-4.5,2.8-8.9,5.6-12.7c0.2-0.3,0.3-0.9,0.2-1.2c-1.6-3.3-1.2-6.8-1.1-10.3
			c0.1-5,1.2-9.6,6.9-11.4c-3.2-3.4-4-6.4-1.9-9.4c1-1.4,2.5-2.5,3.8-3.7C143,78.2,144.2,78.2,145.3,78.2z M155.1,125.9
			c-1.5-5.3-3.2-10.3-7.8-13.8c-0.5-0.4-1-1.1-1-1.7c0-3.4,0.1-6.7,0.3-10.1c0.1-0.8,0.9-1.4,1.4-2.2c0.7,0.6,1.6,1,2,1.7
			c1.6,3.1,3.1,6.2,4.5,9.4c0.3,0.8,0.4,1.8,0.2,2.7c-0.3,1.4,0,2.3,1,3.3c2.6,2.4,5.2,4.8,7.7,7.4c0.6,0.6,1,1.6,1,2.4
			c-0.3,6.9-0.7,13.8-1,20.8c0,0.5-0.1,1-0.1,1.5c0,0.3,0.3,0.8,0.5,0.8c0.2,0.1,0.7-0.2,0.9-0.4c0.3-0.5,0.6-1.1,0.6-1.7
			c0.3-2.7,0.6-5.5,0.7-8.2c0.1-1.4,0.8-1.6,1.9-1.7c1.2-0.1,1.7,0.3,1.9,1.4c0.5,2.6,0.6,5.5,1.5,8.1c0.5,1.3,0.3,1.2,1.7,0.4
			c0.3-0.6,0.8-0.6,1.1-1.4c1.2-2.8-1.5-4.3-1.9-6.8c-0.2-1-0.5-2,0.8-2.3c1.4-0.4,1.5-1.3,1.2-2.5c-0.4-1.8-0.9-3.6-1.2-5.5
			c-0.1-0.6,0.3-1.3,0.5-2c0.5,0.3,1.1,0.5,1.5,0.9c1.5,1.6,2.9,3.2,4.4,5c1-1.8,0.1-2.9-0.9-4.1c-1.6-1.8-3.3-3.6-4.7-5.6
			c-1.3-1.7-2.6-2.5-4.7-1.9c-2.1,0.6-4.2,0.3-6.1-0.9c-1.7-1-3.2-2.1-4.8-3.3c-1.7-1.3-3.3-2.7-2.5-5.3c0.1-0.3,0-0.8-0.1-1.1
			c-1.1-4.9-3.2-9.3-6.5-13.1c-2.2-2.5-5.2-2.7-8.3-2c-2.4,0.6-4,2.1-4.4,4.6c-0.3,2.1-0.4,4.3-0.6,6.5c0.2,0,0.4,0,0.6,0.1
			c0.3-1.9,0.6-3.8,1.1-5.7c0.1-0.5,1-1.1,1.6-1.2c0.3-0.1,1.1,0.8,1.2,1.3c0.3,3.6,0.6,7.2,0.7,10.8c0,0.7-0.2,1.7-0.7,2
			c-3.1,1.9-4.1,5.2-5.8,8c-0.9,1.5-1.5,3.2-2.4,5.2C140,125.9,147.4,125.9,155.1,125.9z M147.5,83.9c0-2.3-2-4.3-4.5-4.3
			c-1.8-0.1-3.8,2.5-3.8,4.9c0,2.4,1.6,4.2,3.6,4.2C145.9,88.7,147.5,87,147.5,83.9z M166.9,115.1c2.8,0,3.9-1,3.8-4
			c0-1.5-1.8-3.4-3.3-3.5c-1.7,0-3.7,2.4-3.7,4.3C163.7,113.9,164.9,115.1,166.9,115.1z M147.5,129.7c-0.9,0-1.7,0-2.2,0
			c0,5.3,0,10.5,0,15.7c0,0.6,0.5,1.2,0.7,1.8c0.3-0.6,0.8-1.1,1-1.7c0.2-0.7,0.1-1.5,0.1-2.2c0.1-3,0.2-6,0.3-8.9
			C147.5,132.8,147.5,131.3,147.5,129.7z M139.8,129.7c0,4-0.1,7.9,0.1,11.8c0,0.7,0.7,1.5,1.1,2.2c0.2-0.8,0.5-1.5,0.6-2.3
			c0.2-3,0.3-6.1,0.5-9.1c0.1-0.8,0.2-1.7,0.3-2.6C141.3,129.7,140.5,129.7,139.8,129.7z M152.3,112.8c0.8-2.1-0.9-7-3.3-9.2
			C148.9,107.1,147.9,111,152.3,112.8z"/>
	</g>
</g>
</svg>
