<?xml version="1.0" encoding="utf-8"?>
<!-- Generator: Adobe Illustrator 19.2.1, SVG Export Plug-In . SVG Version: 6.00 Build 0)  -->
<svg version="1.1" id="Layer_1" xmlns="http://www.w3.org/2000/svg" xmlns:xlink="http://www.w3.org/1999/xlink" x="0px" y="0px"
	 viewBox="0 0 960 560" style="enable-background:new 0 0 960 560;" xml:space="preserve">
<style type="text/css">
	.st0{fill:#333333;}
</style>
<path d="M523,232.7c0,0-15.9,43.7-34.5,56.2c-18.5,12.5-26.3-6-10.6-16.7c15.7-10.7,29.6-34.2,29.6-34.2l19.5-15.8L523,232.7z"/>
<path class="st0" d="M535.4,336c0,0,3.8,62.6,0,67s-13.8,0-13.8,0s4-63.8,5.5-76.9C528.5,313,535.4,336,535.4,336z"/>
<path class="st0" d="M515.4,336c0,0,3.8,62.6,0,67c-3.8,4.4-13.8,0-13.8,0s4-63.8,5.5-76.9S515.4,336,515.4,336z"/>
<path class="st0" d="M437.6,362c0,0,3.2,39,0,41.7c-3.2,2.7-11.7,0-11.7,0s3.4-39.7,4.6-47.9S437.6,362,437.6,362z"/>
<path class="st0" d="M420.6,362c0,0,3.2,39,0,41.7c-3.2,2.7-11.7,0-11.7,0s3.4-39.7,4.6-47.9S420.6,362,420.6,362z"/>
<circle class="st0" cx="425.5" cy="289.2" r="19.6"/>
<path class="st0" d="M529.1,208.6c0,0-8.8,3.2-15.6,0.1c-2.3-1-4.6,8.9-7.4,23.4c-5.7,29.8-13.1,79.2-24.5,93.5
	c-8,10.1,86.5,17.1,77.5,1.2C548.5,308,556,257.3,529.1,208.6z"/>
<path d="M535.2,221c0,0,30.8,35.5,37,56.9s-11.5,22.6-16.9,4.4c-5.4-18.2-18.3-41.8-18.3-41.8l-8-32L535.2,221z"/>
<path d="M434.5,321c0,0,16.4-28.7,29.4-34.7c13-6,14.1,9.2,3.1,14.4c-11,5.2-36,36.2-36,36.2v-9.6L434.5,321z"/>
<path class="st0" d="M436.4,307.6c0,0,10.7,50.2,4.7,58.4c-6,8.2-32.2,2.6-31.8-4.7s1.7-42.3,8.6-53.6S436.4,307.6,436.4,307.6z"/>
<ellipse transform="matrix(0.9917 -0.1283 0.1283 0.9917 -20.0948 66.9254)" class="st0" cx="509.3" cy="189.4" rx="28.5" ry="28.5"/>
<path d="M412.7,316c0,0-13.2,20.5-12.7,31c0.5,10.6,10.9,6.2,10.6-2.7s7.3-36.7,7.3-36.7l-2.1,4.2L412.7,316z"/>
</svg>
